:version 1.10
:name ASF
:units
  mass 1
  length 1
  angle deg
:documentation
  ASF file generated by Kaydara
:root
  axis xyz
  order  tx ty tz rx ry rz
  position 0 0 0
  orientation 0 0 0
:bonedata
  begin
    id 1
    name RightUpLegDummy
    direction -0.718183 -0.695806 0.00816078
    length 4.904
    axis 0 0 0 xyz
  end
  begin
    id 2
    name RightUpLeg
    direction 3.53989e-006 -0.995788 0.0916897
    length 17.4976
    axis -3.49089 -0.000906621 0.000287158 xyz
    dof rx ry rz
  end
  begin
    id 3
    name RightLeg
    direction 0.00371093 -0.995096 -0.0988418
    length 16.5821
    axis 3.68512 0.0193738 -0.131023 xyz
    dof rx ry rz
  end
  begin
    id 4
    name RightFoot
    direction 0.000791514 -0.46099 0.887405
    length 3.77069
    axis 4.84075e-005 -0.120479 -0.188788 xyz
    dof rx ry rz
  end
  begin
    id 5
    name RightToes
    direction 0.00124746 -0.014064 0.9999
    length 3.85082
    axis 0.00048216 0.542163 -0.142577 xyz
    dof rx ry rz
  end
  begin
    id 6
    name SpineDummy
    direction 8.36599e-015 1 5.97571e-016
    length 4.6813
    axis 0 0 0 xyz
  end
  begin
    id 7
    name Spine
    direction -4.63632e-008 0.999988 0.00495137
    length 10.1015
    axis -0.00138897 0.000121419 3.25764e-006 xyz
    dof rx ry rz
  end
  begin
    id 8
    name Spine1
    direction 0 0 0
    length 0
    axis -0.00138896 0.000121452 2.39764e-006 xyz
    dof rx ry rz
  end
  begin
    id 9
    name HEadDummy
    direction -3.91456e-008 0.999999 0.00127422
    length 3.43865
    axis -0.00138896 0.000121452 2.39764e-006 xyz
  end
  begin
    id 10
    name HEad
    direction -0.0222688 0.980941 0.193023
    length 5.12695
    axis -0.00138895 0.000121452 2.39764e-006 xyz
    dof rx ry rz
  end
  begin
    id 11
    name LeftShoulder1Dummy
    direction 0.998891 -0.0402508 -0.0244456
    length 3.5433
    axis -0.00138896 0.000121452 2.39764e-006 xyz
  end
  begin
    id 12
    name LeftShoulder1
    direction 0.99951 -0.000327743 0.0313091
    length 4.05031
    axis -0.00138896 0.000121452 2.39764e-006 xyz
    dof rx ry rz
  end
  begin
    id 13
    name LeftArm
    direction 0.998561 -0.00100054 -0.0536182
    length 10.3537
    axis -23.1894 0.134784 0.96751 xyz
    dof rx ry rz
  end
  begin
    id 14
    name LeftForeArm
    direction 0.998903 0.00866434 0.046012
    length 8.70632
    axis -9.91835 -0.06569 -0.177792 xyz
    dof rx ry rz
  end
  begin
    id 15
    name LeftHand
    direction 0.992938 -0.0411636 0.11126
    length 5.32135
    axis -0.00960227 -0.00340091 0.185174 xyz
    dof rx ry rz
  end
  begin
    id 16
    name RightShoulderDummy
    direction -0.998891 -0.0402509 -0.0244414
    length 3.5433
    axis -0.00138896 0.000121452 2.39764e-006 xyz
  end
  begin
    id 17
    name RightShoulder
    direction -0.99951 -0.000327827 0.0313133
    length 4.05031
    axis 0.215806 0.000203644 -0.00680151 xyz
    dof rx ry rz
  end
  begin
    id 18
    name RightArm
    direction -0.998573 -0.000999583 -0.053403
    length 10.3947
    axis -23.2009 -0.134239 -0.9641 xyz
    dof rx ry rz
  end
  begin
    id 19
    name RightForeArm
    direction -0.998898 0.00868026 0.0461306
    length 8.68355
    axis -9.92322 0.0658061 0.178869 xyz
    dof rx ry rz
  end
  begin
    id 20
    name RightHand
    direction -0.992843 -0.0414603 0.112003
    length 5.28593
    axis -0.00960634 0.00330671 -0.185226 xyz
    dof rx ry rz
  end
  begin
    id 21
    name LeftUpLegDummy
    direction 0.718183 -0.695806 0.00816078
    length 4.904
    axis 0 0 0 xyz
  end
  begin
    id 22
    name LeftUpLeg
    direction -6.8115e-006 -0.995793 0.0916336
    length 17.4976
    axis -3.48766 0.00143441 -0.000523914 xyz
    dof rx ry rz
  end
  begin
    id 23
    name LeftLeg
    direction -0.00601357 -0.995091 -0.0987824
    length 16.5821
    axis 3.68177 -0.00654038 -0.00028478 xyz
    dof rx ry rz
  end
  begin
    id 24
    name LeftFoot
    direction -0.00417578 -0.460984 0.887399
    length 3.77069
    axis 1.87232e-006 4.66002e-005 -8.1837e-006 xyz
    dof rx ry rz
  end
  begin
    id 25
    name LeftToes
    direction 0.00818058 -0.00485161 0.999955
    length 3.85048
    axis 1.06246e-005 4.65855e-005 -8.18502e-006 xyz
    dof rx ry rz
  end
:hierarchy
  begin
    root RightUpLegDummy SpineDummy LeftUpLegDummy
    RightUpLegDummy RightUpLeg
    RightUpLeg RightLeg
    RightLeg RightFoot
    RightFoot RightToes
    SpineDummy Spine
    Spine Spine1
    Spine1 HEadDummy LeftShoulder1Dummy RightShoulderDummy
    HEadDummy HEad
    LeftShoulder1Dummy LeftShoulder1
    LeftShoulder1 LeftArm
    LeftArm LeftForeArm
    LeftForeArm LeftHand
    RightShoulderDummy RightShoulder
    RightShoulder RightArm
    RightArm RightForeArm
    RightForeArm RightHand
    LeftUpLegDummy LeftUpLeg
    LeftUpLeg LeftLeg
    LeftLeg LeftFoot
    LeftFoot LeftToes
  end

:SAMPLES-PER-SECOND 30
:FULLY-SPECIFIED
:DEGREES
1
root  9.12638 39.7626 3.03176 175.349 -78.2469 177.191
RightUpLeg  -5.6091 -1.74716 -7.26586
RightLeg  29.5901 -5.50772 -3.59732
RightFoot  -0.591479 -1.49691 15.7722
RightToes  -2.32832e-010 0 -3.6325e-017
Spine  15.9179 -0.140554 -4.6756
Spine1  -1.82134 -0.469635 -4.2547
HEad  -8.39641 0.384632 -2.16829
LeftShoulder1  2.81509 -8.12034 -17.5986
LeftArm  -8.77617 7.2199 -48.5177
LeftForeArm  12.0775 -1.08981 -13.8588
LeftHand  -0.469342 0.881368 12.0836
RightShoulder  1.76131 4.16085 16.3222
RightArm  -13.1891 -4.43847 55.2947
RightForeArm  23.9087 0.200122 13.4964
RightHand  -0.214248 -3.82166 -15.0463
LeftUpLeg  -3.02647 8.17595 0.710894
LeftLeg  15.376 23.5591 6.69585
LeftFoot  -2.7144 0.533978 -6.85942
LeftToes  2.2737e-010 4.38529e-011 2.18788e-011
2
root  9.02407 39.7511 3.11896 175.545 -77.6651 177.039
RightUpLeg  -6.68194 -2.13366 -7.55747
RightLeg  30.5746 -5.05454 -3.44725
RightFoot  -0.398325 -1.55472 16.1072
RightToes  -2.32832e-010 0 -3.6325e-017
Spine  16.0462 -0.171902 -5.12827
Spine1  -2.32533 -0.558461 -4.38491
HEad  -7.83766 0.897287 -2.16636
LeftShoulder1  2.7859 -8.20434 -17.1391
LeftArm  -9.35683 6.84341 -48.3921
LeftForeArm  11.1631 -1.56534 -13.6513
LeftHand  -0.451975 1.00075 11.9384
RightShoulder  1.776 4.21339 16.3589
RightArm  -13.1409 -5.42678 56.2974
RightForeArm  25.5153 0.801717 13.4473
RightHand  -0.174698 -4.06543 -14.2111
LeftUpLeg  -2.86432 8.33716 0.609829
LeftLeg  15.4362 23.9756 6.71448
LeftFoot  -2.99851 0.523369 -6.92518
LeftToes  2.2737e-010 4.38529e-011 2.18788e-011
3
root  8.83597 39.7822 3.27214 174.989 -76.7784 177.886
RightUpLeg  -8.14292 -2.81046 -7.65981
RightLeg  29.9845 -4.86012 -3.258
RightFoot  -0.953622 -1.49357 16.2513
RightToes  -2.32832e-010 0 -3.6325e-017
Spine  16.1306 -0.301093 -5.64626
Spine1  -3.16442 -0.731447 -4.40676
HEad  -7.15434 1.87649 -1.98125
LeftShoulder1  2.7326 -8.22061 -16.6085
LeftArm  -9.92936 5.81456 -47.9238
LeftForeArm  9.84371 -2.58639 -13.3528
LeftHand  -0.430894 1.08411 11.593
RightShoulder  1.80079 4.27673 16.502
RightArm  -12.7426 -7.3808 58.0511
RightForeArm  27.123 2.13986 13.4056
RightHand  -0.138314 -4.24833 -12.6998
LeftUpLeg  -2.58271 8.47069 0.570744
LeftLeg  15.0607 24.7579 6.69214
LeftFoot  -3.22046 0.517243 -7.00914
LeftToes  2.2737e-010 4.38529e-011 2.18788e-011
4
root  8.65563 39.8841 3.40686 172.96 -76.1625 -179.55
RightUpLeg  -8.65374 -2.94248 -7.01936
RightLeg  25.3702 -6.26633 -3.40336
RightFoot  -1.68542 -1.33363 15.5517
RightToes  -2.32832e-010 0 -3.6325e-017
Spine  16.051 -0.509437 -5.71921
Spine1  -3.75625 -0.900936 -4.08979
HEad  -7.12651 2.77728 -1.63632
LeftShoulder1  2.67979 -8.13238 -16.3072
LeftArm  -9.82815 4.33778 -47.3378
LeftForeArm  8.68811 -3.92134 -13.1275
LeftHand  -0.43662 0.880882 11.2386
RightShoulder  1.83591 4.32563 16.8339
RightArm  -11.8193 -9.27774 59.5124
RightForeArm  26.8492 3.43111 13.4565
RightHand  -0.139549 -4.09006 -11.2372
LeftUpLeg  -2.30023 8.48005 0.879907
LeftLeg  14.0548 25.3804 6.51499
LeftFoot  -3.07903 0.522326 -6.97158
LeftToes  2.2737e-010 4.38529e-011 2.18788e-011
5
root  8.51913 40.0153 3.49028 170.027 -75.9732 -176.018
RightUpLeg  -7.99031 -1.93878 -5.83842
RightLeg  17.2887 -9.74358 -3.61834
RightFoot  -0.613996 -1.2793 13.5859
RightToes  -2.32832e-010 0 -3.6325e-017
Spine  15.83 -0.73367 -5.47946
Spine1  -3.82098 -1.05249 -3.47205
HEad  -7.8563 3.27405 -1.30489
LeftShoulder1  2.64445 -8.09022 -16.0664
LeftArm  -9.06403 2.79408 -46.9841
LeftForeArm  7.24325 -5.52415 -12.9099
LeftHand  -0.460782 0.471753 10.9107
RightShoulder  1.86946 4.3657 17.1689
RightArm  -10.7219 -10.409 60.4275
RightForeArm  26.0371 3.85372 13.6544
RightHand  -0.15207 -3.79116 -10.0435
LeftUpLeg  -2.0941 8.51262 1.52255
LeftLeg  12.8292 25.4846 6.13123
LeftFoot  -2.76829 0.521983 -6.73888
LeftToes  2.2737e-010 4.38529e-011 2.18788e-011
6
root  8.40375 40.152 3.55308 167.064 -76.0235 -172.499
RightUpLeg  -7.00347 -1.39775 -4.41587
RightLeg  8.27061 -12.8039 -3.23787
RightFoot  2.52416 -1.31431 10.9354
RightToes  -2.32832e-010 0 -3.6325e-017
Spine  15.5306 -0.946165 -5.08341
Spine1  -3.5136 -1.19789 -2.75899
HEad  -8.81055 3.403 -1.06311
LeftShoulder1  2.6338 -8.15352 -15.8313
LeftArm  -7.75608 1.34718 -46.8162
LeftForeArm  4.98439 -7.44224 -12.5715
LeftHand  -0.478865 0.120746 10.6127
RightShoulder  1.87898 4.3884 17.2256
RightArm  -9.73422 -10.7831 61.1634
RightForeArm  26.8194 3.3176 13.9847
RightHand  -0.149598 -3.69797 -9.31851
LeftUpLeg  -1.84726 8.6103 2.24577
LeftLeg  11.4477 25.2778 5.48695
LeftFoot  -2.39676 0.508323 -6.31382
LeftToes  2.2737e-010 4.38529e-011 2.18788e-011
7
root  8.30144 40.2817 3.62128 164.838 -76.0334 -169.76
RightUpLeg  -6.66596 -2.8929 -3.01382
RightLeg  0.996872 -12.4704 -2.1589
RightFoot  5.38878 -1.36443 9.47972
RightToes  -2.32832e-010 0 -3.6325e-017
Spine  15.3091 -1.08819 -4.50531
Spine1  -3.20842 -1.25277 -2.32294
HEad  -9.50093 3.34269 -0.848139
LeftShoulder1  2.64067 -8.20553 -15.7857
LeftArm  -5.68991 -0.0447078 -46.6021
LeftForeArm  2.01376 -9.68026 -12.0349
LeftHand  -0.493853 -0.121676 10.4829
RightShoulder  1.8662 4.38122 17.0725
RightArm  -8.94092 -10.6621 61.7854
RightForeArm  29.0635 2.30235 14.3151
RightHand  -0.140711 -3.84591 -9.51236
LeftUpLeg  -1.54733 8.67037 2.79183
LeftLeg  9.96557 25.1975 4.75548
LeftFoot  -1.95033 0.493218 -5.85953
LeftToes  2.2737e-010 4.38529e-011 2.18788e-011
